<?xml version="1.0" standalone="no"?>
<!DOCTYPE svg PUBLIC "-//W3C//DTD SVG 20010904//EN"
 "http://www.w3.org/TR/2001/REC-SVG-20010904/DTD/svg10.dtd">
<svg version="1.0" xmlns="http://www.w3.org/2000/svg"
 width="319.000000pt" height="319.000000pt" viewBox="0 0 319.000000 319.000000"
 preserveAspectRatio="xMidYMid meet">
<metadata>
Created by potrace 1.14, written by Peter Selinger 2001-2017
</metadata>
<g transform="translate(0.000000,319.000000) scale(0.100000,-0.100000)"
fill="#000000" stroke="none">
<path d="M1470 3096 c0 -7 40 -14 44 -7 3 4 -6 8 -20 9 -13 1 -24 0 -24 -2z"/>
<path d="M1533 3084 c0 -10 4 -11 14 -2 10 8 18 6 34 -8 17 -16 22 -16 29 -4
7 10 10 11 10 3 0 -7 9 -13 21 -13 11 0 17 -4 14 -10 -5 -8 39 -16 68 -11 4 0
7 -4 7 -10 0 -5 5 -7 10 -4 6 4 16 2 23 -3 7 -5 20 -8 30 -7 9 2 17 0 17 -4 0
-8 90 -51 108 -51 7 0 12 -5 12 -11 0 -5 4 -8 9 -4 5 3 16 -1 24 -9 8 -8 17
-12 21 -9 3 4 6 1 6 -6 0 -7 4 -10 9 -6 5 3 12 1 16 -5 4 -6 11 -8 16 -5 5 4
9 2 9 -2 0 -11 56 -44 62 -37 3 3 20 -9 37 -26 17 -17 31 -28 31 -24 0 4 9 -3
20 -16 11 -13 20 -20 20 -15 0 7 60 -54 136 -138 16 -18 41 -51 54 -73 24 -38
43 -64 67 -89 12 -13 16 -29 14 -57 -1 -12 -6 -15 -18 -11 -21 8 -43 28 -43
40 0 4 -27 34 -60 66 -33 31 -60 62 -60 67 0 6 -7 10 -15 10 -8 0 -23 10 -35
22 -11 12 -20 18 -20 12 0 -5 -5 -1 -11 9 -5 9 -19 17 -29 17 -11 0 -20 5 -20
11 0 5 -4 8 -9 5 -5 -3 -24 9 -43 27 -36 34 -71 57 -89 57 -6 0 -23 9 -39 20
-15 11 -30 17 -34 13 -3 -3 -6 -2 -6 4 0 5 -29 25 -65 43 -36 18 -65 37 -65
41 0 5 -7 6 -15 3 -8 -4 -15 -1 -15 6 0 6 -4 8 -10 5 -5 -3 -10 -1 -10 5 0 6
-5 8 -10 5 -6 -4 -16 -2 -23 3 -7 5 -24 9 -39 8 -14 -1 -24 2 -22 6 3 4 0 8
-5 8 -6 0 -11 -6 -12 -12 0 -7 -4 -4 -9 7 -5 11 -9 14 -9 7 -1 -10 -5 -10 -17
2 -8 9 -20 16 -27 16 -6 0 -3 -6 7 -13 11 -8 16 -21 13 -33 -4 -16 -5 -16 -6
4 0 13 -5 20 -11 17 -6 -4 -8 -10 -6 -14 3 -4 -5 -8 -16 -8 -18 -2 -19 -1 -4
10 11 8 15 19 10 30 -9 25 -27 21 -19 -4 5 -16 3 -20 -6 -17 -8 3 -13 12 -11
21 4 25 -55 35 -75 12 -4 -4 -3 -5 4 -1 6 3 14 2 17 -3 4 -5 -4 -12 -16 -14
l-23 -4 23 -2 c16 -1 21 -5 16 -13 -6 -10 -4 -10 8 0 14 11 18 10 27 -5 7 -12
10 -13 11 -4 0 8 8 4 20 -10 10 -13 19 -20 20 -15 0 4 11 1 24 -8 24 -15 44
-7 32 12 -3 5 1 9 9 9 10 0 11 -5 4 -19 -5 -10 -8 -18 -7 -19 2 0 14 -3 28 -5
13 -2 28 -10 32 -17 4 -6 8 -8 8 -3 0 4 11 1 25 -8 13 -9 31 -16 40 -16 8 0
15 -5 15 -12 0 -6 3 -8 7 -5 3 4 12 2 20 -4 7 -6 13 -8 13 -4 0 4 7 2 15 -5 8
-7 15 -10 15 -7 0 8 62 -14 77 -27 29 -26 43 -36 48 -37 24 -3 45 -13 45 -21
0 -5 4 -7 9 -4 5 3 12 -1 15 -9 3 -8 9 -14 13 -14 16 4 81 -31 87 -46 3 -9 10
-13 16 -10 5 3 10 1 10 -5 0 -6 12 -16 28 -23 15 -6 32 -19 39 -27 7 -8 13
-11 13 -7 0 4 19 -11 42 -35 23 -24 45 -43 49 -43 4 0 19 -13 33 -30 14 -16
26 -26 26 -22 0 22 40 -34 49 -70 12 -45 5 -98 -23 -165 -17 -39 -66 -116 -66
-103 0 4 -12 -4 -27 -19 -14 -14 -37 -29 -50 -32 -12 -4 -23 -9 -23 -14 0 -4
-18 -15 -40 -25 -22 -10 -42 -27 -46 -38 -3 -11 -24 -37 -45 -58 -22 -21 -39
-48 -39 -59 0 -12 5 -18 10 -15 6 3 10 2 10 -2 0 -9 36 -15 96 -16 41 -2 34
-21 -9 -25 -63 -5 -135 -1 -152 10 -5 3 -27 4 -48 3 -20 -2 -39 1 -42 6 -3 4
-14 6 -25 4 -11 -2 -20 1 -20 6 0 6 -4 7 -10 4 -5 -3 -10 -1 -10 6 0 7 -3 9
-7 6 -3 -4 -12 -2 -20 4 -7 6 -13 8 -13 4 0 -4 -7 -2 -15 5 -8 7 -15 9 -15 5
0 -4 -11 0 -25 9 -14 9 -25 13 -25 9 0 -5 -4 -2 -8 5 -5 7 -19 15 -32 17 -13
2 -26 8 -29 13 -7 10 -43 26 -53 24 -5 -1 -8 2 -8 7 0 5 -13 14 -29 21 -16 6
-32 18 -35 27 -3 8 -10 12 -15 9 -5 -3 -12 1 -15 10 -3 8 -10 12 -16 9 -5 -3
-10 -1 -10 5 0 13 -32 10 -42 -4 -8 -12 2 -37 13 -30 5 3 9 1 9 -5 0 -5 6 -16
13 -23 23 -25 48 -68 36 -66 -6 2 -27 17 -46 33 -19 17 -38 30 -41 30 -7 0
-24 13 -65 50 -12 11 -40 33 -62 50 -39 29 -124 113 -157 157 -10 13 -29 37
-44 53 -14 17 -33 41 -42 55 -9 14 -25 31 -34 38 -10 7 -18 20 -18 29 0 9 -6
13 -15 10 -8 -4 -17 -1 -21 5 -5 7 -2 8 7 3 12 -7 12 -6 1 7 -15 18 -40 18
-52 -1 -9 -15 -30 -6 -30 12 0 8 3 8 9 -1 6 -10 10 -10 21 2 7 9 16 13 21 10
5 -3 9 0 9 5 0 6 -5 11 -11 11 -5 0 -7 5 -4 10 3 6 -1 13 -9 16 -9 3 -14 10
-11 14 3 5 1 11 -4 15 -6 3 -8 13 -5 23 5 13 4 14 -4 3 -8 -11 -10 -11 -14 0
-3 8 2 20 11 27 14 10 13 11 -4 5 -17 -6 -18 -5 -7 9 7 9 9 19 4 22 -11 7 -48
1 -44 -7 1 -4 2 -10 2 -14 0 -4 5 -2 12 5 16 16 33 15 20 0 -6 -7 -10 -17 -10
-21 0 -15 -12 -21 -12 -6 -1 11 -3 11 -10 -2 -11 -18 -48 -18 -59 0 -6 9 -10
8 -15 -5 -5 -12 -1 -23 9 -30 10 -7 12 -15 6 -18 -12 -8 -42 34 -34 47 3 6 1
7 -5 3 -7 -4 -12 -2 -12 3 0 6 -5 11 -11 11 -8 0 -8 -5 1 -15 8 -9 9 -15 2
-15 -6 0 -14 5 -17 11 -5 7 -14 4 -27 -8 -20 -17 -20 -17 -15 2 4 11 2 27 -4
35 -8 11 -9 9 -3 -10 6 -22 5 -23 -10 -11 -9 8 -16 9 -16 3 0 -6 6 -12 13 -15
6 -2 9 -7 6 -11 -9 -10 -40 5 -33 16 4 6 -3 5 -15 -1 -11 -7 -21 -9 -21 -5 0
3 -16 -3 -35 -15 -19 -11 -35 -16 -35 -11 0 5 14 17 31 25 17 9 29 19 26 21
-5 6 -77 -37 -77 -46 0 -3 13 -14 29 -25 17 -11 34 -29 40 -40 5 -11 10 -14
10 -7 1 6 6 12 12 12 5 0 8 -4 4 -10 -3 -5 7 -16 22 -24 16 -7 37 -23 47 -35
23 -26 46 -27 47 -3 0 11 2 12 6 4 3 -7 0 -18 -5 -25 -8 -9 -3 -16 20 -26 30
-14 53 -30 84 -59 8 -7 19 -10 25 -6 8 4 9 3 5 -5 -8 -12 72 -54 86 -45 4 3 8
0 8 -6 0 -6 5 -8 10 -5 6 3 10 2 10 -2 0 -5 26 -24 58 -43 31 -19 63 -40 70
-47 7 -7 20 -13 28 -13 8 0 14 -5 14 -11 0 -5 4 -8 9 -5 5 3 12 -1 15 -10 4
-9 9 -14 13 -11 3 4 14 -3 24 -15 11 -11 19 -17 19 -13 0 4 14 -6 30 -24 17
-17 34 -31 40 -31 5 0 25 -16 45 -35 19 -20 35 -33 35 -30 0 3 6 1 13 -5 34
-30 166 -118 170 -113 3 2 11 -5 17 -17 6 -12 14 -20 16 -17 3 3 17 -6 31 -19
14 -13 29 -21 33 -19 4 3 15 -7 24 -20 9 -14 21 -23 26 -20 6 4 10 2 10 -2 0
-5 24 -27 52 -48 29 -22 76 -62 104 -90 28 -27 68 -63 88 -80 19 -16 49 -42
65 -57 16 -15 31 -25 33 -22 3 2 11 -2 18 -11 7 -8 19 -15 26 -15 8 0 14 -4
14 -8 0 -12 50 -33 61 -27 5 4 9 2 9 -3 0 -13 97 -9 111 5 6 6 18 9 25 6 8 -3
14 0 14 6 0 6 3 11 8 10 20 -3 52 15 52 30 0 9 9 41 21 71 17 45 20 68 15 128
-8 95 -58 247 -98 292 -28 33 -31 34 -41 16 -7 -11 -20 -28 -29 -38 -10 -10
-18 -22 -18 -28 0 -5 -5 -10 -11 -10 -14 0 0 43 17 53 8 4 14 15 14 22 0 8 4
15 8 15 5 0 19 20 31 45 12 25 26 45 30 45 5 0 14 14 21 30 7 17 15 30 19 30
7 0 69 119 101 195 15 36 21 72 22 132 0 74 -2 86 -33 140 -18 32 -35 60 -39
63 -3 3 -11 16 -18 30 -14 28 -20 39 -81 129 -48 71 -74 101 -90 101 -6 0 -15
9 -21 21 -7 11 -14 19 -16 16 -3 -3 -17 6 -31 19 -14 13 -29 22 -33 19 -4 -3
-13 2 -20 10 -7 8 -16 13 -20 10 -4 -2 -16 5 -28 15 -12 11 -28 20 -37 20 -8
0 -15 5 -15 11 0 6 -7 9 -15 5 -8 -3 -15 -1 -15 4 0 6 -3 9 -7 9 -21 -3 -33 2
-33 16 0 8 -7 15 -15 15 -8 0 -15 5 -15 10 0 6 -9 10 -20 10 -11 0 -20 4 -20
9 0 5 -8 8 -17 6 -10 -1 -26 2 -36 7 -12 6 -19 5 -23 -7 -5 -12 -10 -13 -20
-4 -7 6 -19 9 -26 7 -7 -3 -19 1 -26 9 -8 7 -18 10 -24 7 -6 -4 -14 0 -19 7
-7 11 -9 10 -9 -5 0 -20 0 -20 -16 0 -15 19 -16 19 -10 -1 5 -18 5 -18 -7 -4
-11 15 -32 20 -123 34 -12 2 -21 -3 -21 -11z m3 -147 c2 -14 -1 -15 -10 -8 -7
6 -15 9 -18 6 -2 -3 -5 2 -5 10 0 22 30 14 33 -8z m-744 -431 c7 4 10 4 6 -1
-4 -4 4 -17 18 -28 22 -17 27 -18 35 -6 6 9 4 18 -6 25 -8 6 -15 15 -15 19 0
4 6 3 13 -3 14 -12 35 -11 54 1 8 5 11 1 10 -13 -1 -14 -6 -18 -18 -15 -22 7
-35 -13 -20 -28 9 -9 11 -8 6 6 -4 10 -2 17 5 17 6 0 8 -5 4 -11 -5 -8 -1 -8
13 0 14 7 24 7 34 -2 7 -7 6 -3 -2 8 -9 11 -14 26 -12 33 6 16 38 -24 38 -48
0 -8 5 -14 12 -13 7 2 10 -3 7 -11 -3 -9 -18 -14 -36 -13 -18 1 -33 -4 -35
-11 -3 -6 1 -10 9 -9 7 2 10 2 6 0 -4 -2 -5 -10 -2 -18 7 -17 -12 -29 -22 -14
-4 8 -3 9 4 5 19 -11 14 9 -5 26 -10 8 -28 15 -41 16 -21 1 -22 -1 -10 -16 11
-15 11 -16 -3 -4 -10 7 -27 15 -39 17 -17 3 -20 0 -15 -15 4 -12 2 -20 -5 -20
-6 0 -8 5 -5 10 3 6 -1 10 -9 10 -9 0 -15 -3 -15 -7 3 -20 -2 -33 -12 -33 -8
0 -7 6 2 17 12 15 12 16 -4 10 -11 -4 -16 -3 -12 3 3 6 2 10 -4 10 -5 0 -11
-4 -13 -8 -1 -5 -16 -1 -33 9 -16 11 -24 19 -17 19 6 0 12 4 12 9 0 5 -11 8
-24 7 -18 -2 -23 1 -18 12 3 9 1 13 -5 9 -5 -4 -18 0 -28 7 -18 13 -17 14 11
28 16 9 40 13 54 11 14 -2 33 -4 43 -5 21 -3 17 -20 -6 -24 -9 -1 -15 2 -11 7
3 5 0 9 -5 9 -6 0 -11 -7 -11 -16 0 -8 -4 -13 -10 -9 -5 3 -7 13 -4 23 5 16 5
16 -6 0 -6 -9 -17 -15 -25 -12 -8 4 -15 1 -15 -6 0 -6 4 -9 9 -5 5 3 12 1 16
-4 5 -10 36 -8 54 4 5 3 12 1 15 -4 4 -5 14 -8 24 -6 9 1 24 -1 33 -6 12 -6
22 -2 35 14 10 12 15 19 10 14 -5 -4 -18 0 -28 9 -14 14 -20 14 -33 4 -18 -15
-21 0 -3 18 8 8 15 8 24 1 7 -6 19 -7 26 -3z m-13 -29 c14 -18 3 -29 -18 -18
-9 5 -24 7 -34 6 -9 -2 -15 1 -11 6 3 5 9 7 14 4 5 -3 11 -1 15 5 8 14 20 13
34 -3z m46 -95 c0 -7 -4 -12 -9 -11 -5 0 -13 -5 -18 -13 -8 -10 -9 -10 -5 2 2
8 10 14 16 13 14 -4 15 14 1 20 -6 3 -5 4 2 3 7 -2 13 -8 13 -14z m55 8 c0 -5
-4 -10 -10 -10 -5 0 -10 5 -10 10 0 6 5 10 10 10 6 0 10 -4 10 -10z m-33 -38
c-1 -16 -7 -29 -14 -29 -7 0 -9 5 -5 11 7 11 8 16 11 36 3 22 9 8 8 -18z m99
4 c1 -7 -4 -13 -12 -13 -9 0 -11 4 -4 12 5 7 8 15 5 18 -3 4 -2 5 2 2 4 -3 8
-11 9 -19z m64 -1 c0 -1 -8 -5 -18 -7 -11 -3 -19 0 -19 7 0 7 8 10 19 7 10 -2
18 -6 18 -7z m-110 -5 c18 -12 2 -12 -25 0 -13 6 -15 9 -5 9 8 0 22 -4 30 -9z
m-95 -28 c-3 -3 -11 0 -18 7 -9 10 -8 11 6 5 10 -3 15 -9 12 -12z m102 -7 c0
-8 -4 -12 -9 -9 -5 3 -6 10 -3 15 9 13 12 11 12 -6z m14 -52 c13 -16 12 -17
-3 -4 -10 7 -18 15 -18 17 0 8 8 3 21 -13z"/>
<path d="M920 2496 c0 -2 8 -10 18 -17 15 -13 16 -12 3 4 -13 16 -21 21 -21
13z"/>
<path d="M795 2450 c-10 -11 -22 -17 -28 -13 -6 4 -29 7 -52 8 -34 2 -41 -1
-41 -16 0 -11 3 -20 6 -20 27 -7 69 -4 85 6 11 7 30 11 43 9 12 -2 22 1 22 7
0 8 5 8 15 -1 12 -10 15 -10 15 0 0 10 3 10 15 0 15 -12 39 -5 30 10 -3 5 -1
12 5 15 6 4 9 1 8 -6 -2 -8 7 -14 21 -15 l24 -1 -24 18 c-21 16 -26 16 -46 4
-14 -10 -24 -11 -28 -5 -4 6 -11 8 -16 4 -5 -3 -16 -1 -23 5 -10 8 -18 6 -31
-9z m23 -6 c-1 -5 -9 -9 -16 -10 -10 -2 -11 1 -1 12 12 14 24 13 17 -2z m-60
-13 c2 -1 0 -6 -3 -11 -5 -8 -11 -8 -20 0 -9 8 -15 8 -20 0 -3 -6 -11 -8 -16
-4 -23 14 25 26 59 15z"/>
<path d="M1415 3071 c-3 -5 -2 -12 3 -15 5 -3 9 1 9 9 0 17 -3 19 -12 6z"/>
<path d="M1410 3030 c0 -5 5 -10 11 -10 5 0 7 5 4 10 -3 6 -8 10 -11 10 -2 0
-4 -4 -4 -10z"/>
<path d="M1375 3010 c-3 -5 -1 -10 4 -10 6 0 11 5 11 10 0 6 -2 10 -4 10 -3 0
-8 -4 -11 -10z"/>
<path d="M1435 3000 c-4 -6 -11 -7 -17 -4 -7 4 -8 2 -4 -5 6 -9 11 -9 22 0 14
11 18 19 10 19 -3 0 -8 -5 -11 -10z"/>
<path d="M1454 2982 c3 -6 -2 -13 -11 -15 -16 -4 -16 -5 -1 -6 21 -1 32 15 17
25 -7 4 -9 3 -5 -4z"/>
<path d="M2780 2645 c0 -8 4 -15 10 -15 5 0 7 7 4 15 -4 8 -8 15 -10 15 -2 0
-4 -7 -4 -15z"/>
<path d="M575 2630 c-3 -5 -1 -10 4 -10 6 0 11 5 11 10 0 6 -2 10 -4 10 -3 0
-8 -4 -11 -10z"/>
<path d="M709 2613 c-13 -16 -12 -17 4 -4 9 7 17 15 17 17 0 8 -8 3 -21 -13z"/>
<path d="M633 2605 c0 -8 4 -12 9 -9 5 3 6 10 3 15 -9 13 -12 11 -12 -6z"/>
<path d="M555 2600 c6 -9 4 -12 -7 -8 -8 4 -15 1 -15 -7 0 -8 7 -11 15 -7 11
4 13 1 7 -9 -5 -8 -4 -11 0 -6 13 12 15 36 3 44 -7 4 -8 1 -3 -7z"/>
<path d="M795 2600 c-4 -6 -10 -8 -15 -5 -4 3 -7 -2 -6 -10 1 -8 4 -16 7 -17
2 -2 3 -1 1 1 -1 2 5 13 15 23 9 10 13 18 10 18 -3 0 -9 -5 -12 -10z"/>
<path d="M836 2584 c-11 -8 -15 -14 -10 -14 6 0 16 6 23 13 12 10 13 8 7 -8
-6 -16 -5 -18 5 -7 20 19 -2 33 -25 16z"/>
<path d="M956 2577 c3 -10 9 -15 12 -12 3 3 0 11 -7 18 -10 9 -11 8 -5 -6z"/>
<path d="M587 2564 c5 -13 3 -15 -7 -9 -9 5 -11 4 -6 -3 4 -7 11 -12 17 -12
12 0 12 27 -1 35 -6 4 -7 -1 -3 -11z"/>
<path d="M630 2570 c0 -5 5 -10 10 -10 6 0 10 5 10 10 0 6 -4 10 -10 10 -5 0
-10 -4 -10 -10z"/>
<path d="M685 2569 c-4 -6 -5 -12 -2 -15 2 -3 7 2 10 11 7 17 1 20 -8 4z"/>
<path d="M753 2568 c3 -9 1 -19 -6 -22 -9 -3 -9 -5 0 -5 18 -1 23 13 11 29 -8
12 -9 12 -5 -2z"/>
<path d="M510 2551 c0 -6 4 -12 8 -15 5 -3 9 1 9 9 0 8 -4 15 -9 15 -4 0 -8
-4 -8 -9z"/>
<path d="M805 2550 c-3 -5 -1 -10 4 -10 6 0 11 5 11 10 0 6 -2 10 -4 10 -3 0
-8 -4 -11 -10z"/>
<path d="M873 2545 c0 -8 4 -15 9 -15 4 0 8 4 8 9 0 6 -4 12 -8 15 -5 3 -9 -1
-9 -9z"/>
<path d="M556 2523 c-6 -14 -5 -15 5 -6 7 7 10 15 7 18 -3 3 -9 -2 -12 -12z"/>
<path d="M510 2516 c0 -2 7 -6 15 -10 8 -3 15 -1 15 4 0 6 -7 10 -15 10 -8 0
-15 -2 -15 -4z"/>
<path d="M2910 2456 c0 -19 -6 -36 -12 -39 -10 -3 -10 -13 0 -50 6 -26 12 -54
12 -63 0 -9 -6 -14 -12 -11 -8 2 -27 -21 -46 -55 -18 -32 -37 -58 -43 -58 -5
0 -14 -11 -21 -25 -6 -13 -16 -22 -21 -18 -6 4 -8 0 -4 -11 4 -10 7 -22 7 -27
0 -6 4 -8 9 -4 14 8 23 -31 16 -66 -11 -48 16 -32 36 22 38 101 77 189 92 203
9 9 19 36 23 61 3 25 10 45 14 45 21 0 16 36 -11 80 -17 28 -33 50 -35 50 -2
0 -4 -15 -4 -34z"/>
<path d="M530 2456 c0 -2 7 -7 16 -10 8 -3 12 -2 9 4 -6 10 -25 14 -25 6z"/>
<path d="M615 2387 c18 -15 27 -34 29 -59 2 -21 -1 -35 -5 -32 -5 3 -9 -31 -9
-76 0 -65 -4 -85 -18 -101 -29 -30 -57 -95 -71 -160 -6 -25 -22 -67 -37 -93
-23 -41 -26 -55 -21 -103 6 -54 5 -55 -29 -75 -19 -11 -34 -22 -34 -24 0 -9
25 2 44 19 11 9 24 17 29 17 6 0 7 24 3 61 -5 53 -3 66 19 103 13 23 29 64 35
91 13 60 64 161 79 158 6 -2 11 2 11 8 0 5 5 7 10 4 7 -4 10 21 10 72 -1 43 1
95 4 116 5 33 2 41 -27 67 -17 16 -36 30 -40 30 -4 0 4 -10 18 -23z"/>
<path d="M2746 2302 c-4 -12 -12 -20 -17 -17 -5 4 -9 -5 -9 -18 0 -34 28 -44
36 -13 3 13 4 35 2 47 l-4 24 -8 -23z"/>
<path d="M2606 2151 c-2 -3 -9 -22 -15 -42 -6 -19 -29 -54 -51 -78 -26 -27
-40 -52 -40 -69 0 -29 -12 -53 -26 -55 -5 -1 -10 -18 -10 -37 -1 -19 -6 -59
-12 -89 -8 -45 -7 -62 8 -95 l17 -41 7 43 c4 23 11 42 16 42 12 0 29 48 44
130 18 93 30 124 58 154 37 38 58 66 58 76 0 6 5 10 10 10 14 0 12 37 -2 47
-16 9 -57 12 -62 4z"/>
<path d="M2678 1928 c-13 -24 -33 -61 -43 -83 -11 -22 -23 -42 -26 -45 -9 -8
-26 -67 -40 -136 -8 -47 -15 -61 -28 -60 -14 1 -16 -11 -14 -94 l1 -95 -18 94
c-26 129 -27 130 -25 16 2 -70 7 -110 19 -132 24 -47 20 -58 -24 -78 -22 -10
-40 -21 -40 -25 0 -14 28 -31 34 -21 8 13 39 7 44 -9 3 -7 0 -10 -6 -6 -6 3
-18 -4 -26 -16 -9 -12 -16 -19 -16 -15 0 4 -22 -7 -49 -23 -26 -17 -53 -30
-60 -30 -6 0 -11 -5 -11 -11 0 -5 -4 -8 -8 -5 -11 7 -34 -21 -51 -61 -7 -18
-20 -33 -27 -33 -22 0 -16 -16 6 -17 11 -1 20 3 20 9 0 6 3 8 6 5 4 -3 16 -1
28 5 11 7 24 12 28 13 4 0 13 6 20 12 6 7 17 13 22 13 6 0 28 18 48 39 22 23
44 38 55 36 26 -4 41 12 36 38 -3 13 2 30 10 38 8 8 14 28 14 44 0 17 6 51 13
77 12 40 12 56 2 95 -11 40 -11 49 1 58 7 5 16 35 20 65 5 52 65 204 108 275
20 31 25 90 10 99 -5 3 -20 -13 -33 -36z m-128 -642 c0 -3 -4 -8 -10 -11 -5
-3 -10 -1 -10 4 0 6 5 11 10 11 6 0 10 -2 10 -4z"/>
<path d="M385 1630 c-26 -28 -15 -31 12 -3 12 13 19 23 14 23 -4 0 -16 -9 -26
-20z"/>
<path d="M2694 1592 c-5 -4 -18 -28 -28 -54 -10 -27 -22 -48 -27 -48 -5 0 -9
-11 -9 -25 0 -16 6 -25 15 -25 8 0 15 4 15 10 0 5 6 7 14 4 21 -8 50 74 39
114 -5 19 -12 28 -19 24z"/>
<path d="M1627 1553 c-5 -7 -10 -84 -8 -107 1 -5 7 -3 14 3 8 6 17 8 20 5 10
-11 57 -13 57 -3 0 5 -4 9 -10 9 -5 0 -10 9 -10 20 0 10 -6 23 -13 27 -7 4
-20 18 -29 31 -9 13 -18 20 -21 15z"/>
<path d="M1740 1535 c0 -20 30 -59 48 -62 18 -4 14 31 -6 48 -33 28 -42 31
-42 14z"/>
<path d="M1954 1405 c4 -20 3 -35 -3 -35 -5 0 -8 -30 -8 -67 2 -63 1 -67 -23
-73 -24 -6 -58 5 -72 25 -4 5 -10 6 -14 2 -9 -8 16 -38 26 -32 4 3 11 -2 14
-11 4 -9 9 -14 13 -11 3 4 12 2 19 -3 30 -26 60 2 79 76 20 76 19 119 -2 144
-26 30 -36 24 -29 -15z"/>
<path d="M1769 1260 c-18 -25 -68 -34 -76 -15 -4 11 -10 12 -23 5 -13 -7 -20
-6 -22 1 -3 8 -15 6 -38 -7 -19 -10 -43 -19 -52 -20 -10 -1 -25 -2 -33 -3 -8
0 -15 -6 -15 -13 0 -6 3 -9 6 -6 3 4 19 2 35 -2 18 -5 29 -5 29 1 0 6 5 7 11
3 6 -3 15 -1 19 5 5 9 11 8 24 -4 9 -9 16 -13 16 -9 0 3 6 2 13 -4 6 -5 32 -9
56 -8 35 2 46 7 54 24 6 12 14 22 19 22 11 0 10 37 -1 44 -5 3 -15 -3 -22 -14z"/>
<path d="M1044 1161 c3 -44 0 -68 -8 -77 -18 -17 -41 -223 -27 -237 22 -22 39
23 33 85 -6 73 12 78 47 13 21 -41 22 -45 7 -60 -26 -26 -32 -47 -34 -107 -3
-67 14 -77 45 -28 12 19 23 26 31 21 13 -8 6 -41 -9 -41 -5 0 -9 -7 -9 -15 0
-8 -6 -15 -13 -15 -7 0 -29 -13 -47 -30 -18 -16 -40 -30 -47 -30 -7 0 -13 -6
-13 -12 0 -7 -17 -26 -37 -43 -78 -65 -92 -85 -87 -119 16 -97 27 -136 48
-181 13 -27 35 -75 49 -105 14 -31 31 -61 38 -67 30 -25 331 -103 395 -103 8
0 14 7 14 17 0 14 2 14 20 -2 21 -19 90 -32 90 -17 0 5 -6 25 -14 44 -8 18
-26 76 -41 128 -15 52 -40 124 -56 160 -17 35 -41 100 -54 145 -30 102 -39
126 -68 172 -13 21 -29 58 -36 83 -7 25 -27 71 -45 103 -61 113 -64 122 -55
134 11 13 27 12 49 -2 8 -5 20 -10 26 -11 6 -1 24 -10 39 -20 15 -10 36 -19
47 -19 31 -3 41 -20 23 -39 -14 -13 -20 -14 -32 -4 -22 18 -31 -4 -26 -60 7
-67 21 -109 49 -139 13 -14 24 -23 24 -19 0 4 7 0 16 -8 8 -9 21 -16 28 -16 7
0 21 -9 31 -20 15 -16 16 -22 5 -35 -10 -12 -16 -13 -26 -4 -21 17 -26 -9 -10
-51 43 -113 70 -159 97 -169 16 -5 29 -14 29 -20 0 -5 10 -13 23 -17 26 -8 56
-38 76 -77 13 -24 12 -29 -4 -47 -22 -25 -35 -17 -35 20 0 21 -8 33 -30 47
-16 9 -30 22 -30 27 0 5 -3 6 -7 3 -3 -4 -12 1 -19 11 -12 16 -13 16 -19 0 -4
-11 4 -39 19 -70 14 -28 26 -57 26 -64 0 -6 12 -38 26 -70 50 -114 40 -105
117 -103 46 1 70 6 74 15 5 14 -2 51 -39 212 -15 67 -31 110 -59 153 -21 32
-42 71 -45 85 -6 22 -8 24 -16 10 -5 -9 -7 -20 -4 -24 8 -13 -11 -35 -33 -39
-23 -3 -41 24 -24 36 5 3 15 20 22 38 14 33 13 36 -41 152 -12 24 -24 77 -28
116 -5 54 -13 79 -29 96 -11 12 -21 29 -21 36 0 8 -5 11 -12 7 -7 -5 -9 -2 -6
8 7 16 -27 42 -42 33 -6 -4 -10 -1 -10 5 0 6 -4 9 -9 5 -5 -3 -13 0 -16 6 -4
5 -13 8 -21 5 -8 -3 -14 -1 -14 4 0 6 -3 9 -7 8 -11 -2 -63 24 -63 32 0 8 -52
34 -62 32 -5 -1 -8 14 -8 34 0 28 -3 34 -12 27 -18 -13 -39 -10 -50 7 -4 8
-20 40 -33 70 l-26 55 5 -64z m166 -433 c0 -12 3 -19 6 -15 4 3 13 0 20 -8 29
-29 23 -348 -7 -330 -4 3 -15 -11 -24 -31 -26 -62 -38 -29 -20 55 17 83 18 94
6 87 -4 -3 -16 21 -26 53 -14 48 -21 58 -36 54 -11 -3 -19 -9 -19 -14 0 -5 -3
-8 -7 -7 -14 3 -63 -25 -63 -35 0 -6 -3 -8 -6 -4 -3 3 -17 -7 -31 -23 -14 -17
-30 -27 -38 -23 -8 3 -15 8 -15 12 0 12 57 70 64 64 3 -3 6 -1 6 5 0 7 3 11 8
10 4 -1 21 5 37 12 17 7 32 14 35 14 18 3 69 70 75 98 9 40 13 48 26 48 5 0 9
-10 9 -22z"/>
<path d="M1221 544 c0 -11 3 -14 6 -6 3 7 2 16 -1 19 -3 4 -6 -2 -5 -13z"/>
<path d="M1740 1157 c0 -12 24 -37 45 -47 6 -3 27 -22 49 -42 21 -21 42 -38
46 -38 3 0 12 -11 20 -24 14 -27 50 -31 50 -6 0 8 -14 26 -31 40 -17 14 -40
34 -50 44 -11 11 -19 16 -19 11 0 -5 -7 0 -15 11 -8 10 -15 16 -15 12 0 -4
-15 6 -32 23 -35 32 -48 36 -48 16z"/>
<path d="M1666 1152 c-2 -4 -41 -7 -85 -7 -49 0 -81 -4 -81 -10 0 -21 16 -31
49 -30 21 0 35 -5 39 -14 6 -16 -44 -64 -59 -56 -5 4 -9 2 -9 -4 0 -6 -7 -8
-15 -5 -8 4 -15 1 -15 -6 0 -7 -7 -10 -15 -6 -8 3 -15 1 -15 -4 0 -5 -7 -7
-15 -4 -8 4 -15 1 -15 -6 0 -6 -4 -9 -9 -5 -5 3 -12 1 -16 -5 -4 -7 -12 -7
-25 0 -13 7 -19 6 -23 -4 -9 -22 86 -55 99 -34 3 4 11 5 17 1 15 -10 117 -12
117 -3 0 4 11 12 25 18 27 13 57 74 53 108 -2 13 7 34 20 48 12 15 22 27 22
29 0 6 -40 5 -44 -1z"/>
<path d="M2460 1088 c0 -4 -4 -7 -9 -5 -5 1 -24 -12 -44 -30 -19 -17 -38 -29
-41 -26 -3 4 -6 1 -6 -6 0 -7 -5 -9 -11 -6 -18 12 -99 14 -99 4 0 -6 -4 -7
-10 -4 -5 3 -10 1 -10 -4 0 -6 8 -11 17 -11 18 0 12 -10 -9 -14 -7 -1 -17 -4
-23 -7 -9 -5 -31 -5 -37 1 -9 7 -39 7 -43 0 -7 -12 26 -50 42 -50 7 0 13 -4
13 -8 0 -10 37 -8 63 3 20 9 23 30 3 22 -10 -4 -13 -1 -10 7 5 13 10 15 60 19
63 5 224 124 168 124 -8 0 -14 -4 -14 -9z"/>
<path d="M1685 1022 c-3 -18 -10 -32 -15 -32 -45 0 -30 -264 18 -300 4 -3 19
-30 34 -60 15 -30 43 -82 62 -115 61 -107 66 -118 66 -147 0 -15 4 -28 8 -28
12 0 32 -69 22 -75 -10 -6 -21 9 -46 62 -10 24 -22 43 -26 43 -5 0 -8 9 -8 19
0 11 -4 23 -10 26 -5 3 -17 21 -25 39 -9 19 -36 55 -59 81 l-43 47 -5 -32 c-3
-21 6 -58 28 -112 38 -94 46 -118 48 -135 1 -7 5 -13 10 -12 8 0 28 -47 81
-193 9 -27 21 -48 26 -48 5 0 9 -7 9 -15 0 -8 6 -13 13 -11 6 2 49 12 95 22
48 10 82 22 82 29 0 7 -10 34 -21 61 -20 44 -21 60 -16 164 7 121 -6 276 -28
344 -7 23 -25 83 -40 134 -16 50 -32 92 -37 92 -4 0 -8 6 -8 14 0 8 -7 16 -15
20 -8 3 -14 11 -13 18 2 7 -4 14 -12 14 -8 1 -18 3 -22 4 -5 1 -14 3 -20 4 -7
1 -12 7 -11 13 1 6 -6 9 -17 6 -12 -3 -20 0 -20 6 0 7 -4 10 -9 7 -5 -3 -12 1
-15 10 -3 8 -10 12 -16 9 -5 -3 -10 0 -10 7 0 8 -6 23 -14 33 -13 18 -14 17
-21 -13z"/>
<path d="M1966 770 c4 -19 15 -64 25 -100 10 -36 23 -96 28 -134 6 -37 13 -71
17 -75 3 -3 3 8 0 24 -4 17 -7 57 -8 90 -1 33 -8 76 -16 95 -8 19 -16 45 -19
59 -2 13 -10 36 -18 50 -14 26 -14 26 -9 -9z"/>
<path d="M1005 708 c3 -32 3 -31 21 -13 9 9 14 19 10 22 -3 4 -6 3 -6 -2 0 -4
-6 -2 -14 4 -11 9 -13 7 -11 -11z"/>
</g>
</svg>
