<svg width="267" height="147" viewBox="0 0 267 147" fill="none" xmlns="http://www.w3.org/2000/svg">
<g clip-path="url(#clip0_152_115)">
<path d="M263.637 0H1V147H267.996V0H263.637ZM263.637 142.637H5.41016V4.41016H263.637V142.637Z" fill="white"/>
<path d="M74.7793 65.7722L67.3418 27.4558H57.3105L49.3652 54.3347L41.3652 27.4558H31.334L23.8965 65.7722H33.1934L37.7012 39.3464L45.1973 65.7722H53.4785L60.9746 39.3464L65.4824 65.7722H74.7793Z" fill="white"/>
<path d="M99.2891 51.1238H89.5977L94.4414 37.4871L99.2891 51.1238ZM113.602 65.7722L98.0469 27.4558H90.8906L75.3398 65.7722H84.4141L87.1719 58.0535H101.766L104.527 65.7722H113.602Z" fill="white"/>
<path d="M125.711 52.0808H125.77L134.898 65.7722H145.602L134.613 51.6863C139.461 50.5027 143.348 46.2214 143.348 39.741C143.348 32.4714 137.828 27.4558 131.629 27.4558H117.258V65.7722H125.711V52.0808ZM130.219 34.1042C132.699 34.1042 135.289 36.2449 135.289 39.741C135.289 43.4011 132.699 45.4324 130.219 45.4324H125.711V34.1042H130.219Z" fill="white"/>
<path d="M156.756 48.6433L168.873 65.7722H180.252L164.982 46.616L179.689 27.4558H168.873L156.756 44.5847V27.4558H148.303V65.7722H156.756V48.6433Z" fill="white"/>
<path d="M205.271 58.1082H191.521V50.3894H204.709V42.7253H191.521V35.1199H205.271V27.4558H183.068V65.7722H205.271V58.1082Z" fill="white"/>
<path d="M228.314 35.1199H239.248V27.4558H208.932V35.1199H219.865V65.7722H228.314V35.1199Z" fill="white"/>
<path d="M41.873 116.05C37.7012 116.05 34.0957 113.964 33.8691 109.401H25.3066C25.3613 118.753 33.0801 122.925 41.5332 122.925C49.3652 122.925 57.4238 119.6 57.4238 110.585C57.4238 95.991 35.2793 100.893 35.2793 94.073C35.2793 91.2019 38.6035 90.073 40.9707 90.073C45.1973 90.073 47.5059 91.3699 47.959 95.3699H56.127C55.8457 86.6355 48.748 83.1433 40.8574 83.1433C33.8691 83.1433 26.5449 86.8621 26.5449 94.7488C26.5449 108.893 48.6895 104.104 48.6895 111.542C48.6895 114.979 44.5215 116.05 41.873 116.05Z" fill="white"/>
<path d="M84.8633 83.7058V105.85C84.8633 111.147 83.2852 114.135 77.4844 114.135C71.7344 114.135 70.1016 111.147 70.1016 105.85V83.7058H61.6484V107.089C61.6484 117.288 67.5078 122.585 77.4844 122.585C87.457 122.585 93.3164 117.288 93.3164 107.089V83.7058H84.8633Z" fill="white"/>
<path d="M107.682 108.331H107.74L116.869 122.022H127.572L116.584 107.936C121.432 106.753 125.318 102.471 125.318 95.991C125.318 88.7214 119.799 83.7058 113.6 83.7058H99.2285V122.022H107.682V108.331ZM112.189 90.3542C114.67 90.3542 117.26 92.4949 117.26 95.991C117.26 99.6511 114.67 101.682 112.189 101.682H107.682V90.3542H112.189Z" fill="white"/>
<path d="M151.914 106.639V98.9753H138.727V91.3699H152.477V83.7058H130.273V122.022H138.727V106.639H151.914Z" fill="white"/>
</g>
<defs>
<clipPath id="clip0_152_115">
<rect width="267" height="147" fill="white"/>
</clipPath>
</defs>
</svg>
