<svg id="Layer_1" data-name="Layer 1" xmlns="http://www.w3.org/2000/svg" viewBox="0 0 841.89 297.64"><defs><style>.cls-1{fill:#2a1000;}.cls-2{fill:#fff;}.cls-3{fill:#4a4a4a;}</style></defs><rect class="cls-1" x="-16.59" y="-18.49" width="868.59" height="316.3"/><polygon class="cls-2" points="343.88 187.34 343.06 185.29 343.06 187.34 343.88 187.34"/><polygon class="cls-2" points="282.59 149.62 283.27 151.32 283.27 149.62 282.59 149.62"/><path class="cls-3" d="M686.4,155.13h25.28a10.68,10.68,0,0,1,9.94,6.76l5,12.61a10.7,10.7,0,0,0,9.95,6.76h55.93v-5.69l-8.14-20.44H726.1a10.68,10.68,0,0,1-9.94-6.77l-5-12.6a10.7,10.7,0,0,0-9.95-6.76H643.13l29.92,74.9h33.21"/><path class="cls-3" d="M702.54,102.86a10.69,10.69,0,0,1,9.93,6.73l5.07,12.68a10.71,10.71,0,0,0,9.93,6.73h58.21l-10.41-26.14H717a10.69,10.69,0,0,1-9.93-6.72L702,83.45a10.71,10.71,0,0,0-9.94-6.72H626.84v5.66L635,102.86Z"/><path class="cls-2" d="M70.59,75.42H178.74v25.74H80.54l-5.41,5v15.79l5,5.19,77.22-.44,21.41,19.69v39.8l-21,17.73H49.4V178.17h98.85l4.75-3.9V157.61l-5.62-5-77.87.22L49.4,132.52V94.67Z"/><path class="cls-2" d="M370,178.17H461V203.9H344.21V75.42H460.37v25.74H370v25.52h57.11v25.74H370Z"/><path class="cls-3" d="M602.26,75.42v25.74h-51.7V203.9H524.83V101.16H473.34V75.42Z"/><path class="cls-2" d="M228.82,178.17h91.06V203.9H203.08V75.42H319.23v25.74H228.82v25.52h57.1v25.74h-57.1Z"/></svg>