<svg id="Layer_1" data-name="Layer 1" xmlns="http://www.w3.org/2000/svg" viewBox="0 0 841.89 297.64"><defs><style>.cls-1{fill:#fff;}.cls-2{fill:#4a4a4a;}</style></defs><polygon class="cls-1" points="343.88 196.5 343.06 194.45 343.06 196.5 343.88 196.5"/><polygon class="cls-1" points="282.59 158.77 283.27 160.48 283.27 158.77 282.59 158.77"/><path class="cls-2" d="M686.4,164.28h25.28a10.68,10.68,0,0,1,9.94,6.77l5,12.6a10.7,10.7,0,0,0,9.95,6.77h55.93v-5.69l-8.14-20.45H726.1a10.68,10.68,0,0,1-9.94-6.76l-5-12.61a10.7,10.7,0,0,0-9.95-6.76H643.13l29.92,74.91h33.21"/><path class="cls-2" d="M702.54,112a10.69,10.69,0,0,1,9.93,6.72l5.07,12.69a10.7,10.7,0,0,0,9.93,6.72h58.21L775.27,112H717a10.7,10.7,0,0,1-9.93-6.73L702,92.61a10.71,10.71,0,0,0-9.94-6.73H626.84v5.67L635,112Z"/><path class="cls-1" d="M70.59,84.58H178.74v25.74H80.54l-5.41,5v15.79l5,5.19,77.22-.43,21.41,19.68v39.8l-21,17.74H49.4V187.32h98.85l4.75-3.89V166.77l-5.62-5L69.51,162,49.4,141.68V103.83Z"/><path class="cls-1" d="M370,187.32H461v25.74H344.21V84.58H460.37v25.74H370v25.52h57.11v25.74H370Z"/><path class="cls-2" d="M602.26,84.58v25.74h-51.7V213.06H524.83V110.32H473.34V84.58Z"/><path class="cls-1" d="M228.82,187.32h91.06v25.74H203.08V84.58H319.23v25.74H228.82v25.52h57.1v25.74h-57.1Z"/></svg>