<svg id="Layer_1" data-name="Layer 1" xmlns="http://www.w3.org/2000/svg" viewBox="0 0 841.89 297.64"><defs><style>.cls-1,.cls-3{fill:#fff;}.cls-2{fill:#4a4a4a;}.cls-3{font-size:34.89px;font-family:Nebula;}</style></defs><polygon class="cls-1" points="343.88 165.86 343.06 163.81 343.06 165.86 343.88 165.86"/><polygon class="cls-1" points="282.59 128.13 283.27 129.84 283.27 128.13 282.59 128.13"/><path class="cls-2" d="M686.4,133.64h25.28a10.68,10.68,0,0,1,9.94,6.77l5,12.6a10.7,10.7,0,0,0,9.95,6.77h55.93v-5.69l-8.14-20.45H726.1a10.68,10.68,0,0,1-9.94-6.76l-5-12.61a10.7,10.7,0,0,0-9.95-6.76H643.13l29.92,74.91h33.21"/><path class="cls-2" d="M702.54,81.38a10.69,10.69,0,0,1,9.93,6.72l5.07,12.69a10.7,10.7,0,0,0,9.93,6.72h58.21L775.27,81.38H717a10.7,10.7,0,0,1-9.93-6.73L702,62a10.71,10.71,0,0,0-9.94-6.73H626.84v5.67L635,81.38Z"/><path class="cls-1" d="M70.59,53.94H178.74V79.68H80.54l-5.41,5v15.79l5,5.19,77.22-.43,21.41,19.68v39.8l-21,17.74H49.4V156.68h98.85l4.75-3.89V136.13l-5.62-5-77.87.22L49.4,111V73.19Z"/><path class="cls-1" d="M370,156.68H461v25.74H344.21V53.94H460.37V79.68H370V105.2h57.11v25.74H370Z"/><path class="cls-2" d="M602.26,53.94V79.68h-51.7V182.42H524.83V79.68H473.34V53.94Z"/><text class="cls-3" transform="translate(58.43 249.73)">Social engineering Experts</text><path class="cls-1" d="M228.82,156.68h91.06v25.74H203.08V53.94H319.23V79.68H228.82V105.2h57.1v25.74h-57.1Z"/></svg>